<svg width="70" height="50" viewBox="0 0 70 50" fill="none" xmlns="http://www.w3.org/2000/svg">
<rect x="1.5" y="1.5" width="67" height="47" rx="4.5" fill="white"/>
<path d="M23 37C22.175 37 21.4685 36.706 20.8805 36.118C20.2925 35.53 19.999 34.824 20 34V16C20 15.175 20.294 14.4685 20.882 13.8805C21.47 13.2925 22.176 12.999 23 13H47C47.825 13 48.5315 13.294 49.1195 13.882C49.7075 14.47 50.001 15.176 50 16V34C50 34.825 49.706 35.5315 49.118 36.1195C48.53 36.7075 47.824 37.001 47 37H23ZM35 26.5L23 19V34H47V19L35 26.5ZM35 23.5L47 16H23L35 23.5ZM23 19V16V34V19Z" fill="#007E1D"/>
<rect x="1.5" y="1.5" width="67" height="47" rx="4.5" stroke="#007E1D" stroke-width="3"/>
</svg>
