<svg width="20" height="16" viewBox="0 0 20 16" fill="none" xmlns="http://www.w3.org/2000/svg">
<mask id="mask0_1400_4371" style="mask-type:luminance" maskUnits="userSpaceOnUse" x="0" y="0" width="20" height="16">
<path d="M0 0.799988H20V15.2H0V0.799988Z" fill="white"/>
</mask>
<g mask="url(#mask0_1400_4371)">
<path fill-rule="evenodd" clip-rule="evenodd" d="M0 0.799988H20V15.2H0V0.799988Z" fill="#F7FCFF"/>
<path fill-rule="evenodd" clip-rule="evenodd" d="M0 9.59998V10.8H20V9.59998H0Z" fill="#E31D1C"/>
<path fill-rule="evenodd" clip-rule="evenodd" d="M0 11.8V13H20V11.8H0Z" fill="#E31D1C"/>
<path fill-rule="evenodd" clip-rule="evenodd" d="M0 5.19995V6.39995H20V5.19995H0Z" fill="#E31D1C"/>
<path fill-rule="evenodd" clip-rule="evenodd" d="M0 14V15.2H20V14H0Z" fill="#E31D1C"/>
<path fill-rule="evenodd" clip-rule="evenodd" d="M0 7.39996V8.59996H20V7.39996H0Z" fill="#E31D1C"/>
<path fill-rule="evenodd" clip-rule="evenodd" d="M0 0.799988V1.99999H20V0.799988H0Z" fill="#E31D1C"/>
<path fill-rule="evenodd" clip-rule="evenodd" d="M0 3.00006V4.20006H20V3.00006H0Z" fill="#E31D1C"/>
<path d="M0 0.799988H12.5V8.59999H0V0.799988Z" fill="#2E42A5"/>
<path fill-rule="evenodd" clip-rule="evenodd" d="M1.07626 2.56324L0.622585 2.86857L0.775749 2.3252L0.372803 1.98086H0.899105L1.07562 1.53741L1.28261 1.98086H1.73127L1.37874 2.3252L1.51522 2.86857L1.07626 2.56324ZM3.57626 2.56324L3.12259 2.86857L3.27575 2.3252L2.87281 1.98086H3.39911L3.57562 1.53741L3.78261 1.98086H4.23127L3.87874 2.3252L4.01522 2.86857L3.57626 2.56324ZM5.62259 2.86857L6.07626 2.56324L6.51522 2.86857L6.37872 2.3252L6.73128 1.98086H6.28259L6.07562 1.53741L5.89911 1.98086H5.37281L5.77575 2.3252L5.62259 2.86857ZM8.57628 2.56324L8.12259 2.86857L8.27578 2.3252L7.87278 1.98086H8.39909L8.57565 1.53741L8.78259 1.98086H9.23128L8.87872 2.3252L9.01522 2.86857L8.57628 2.56324ZM0.622585 5.26857L1.07626 4.96324L1.51522 5.26857L1.37874 4.7252L1.73127 4.38086H1.28261L1.07562 3.93741L0.899105 4.38086H0.372803L0.775749 4.7252L0.622585 5.26857ZM3.57626 4.96324L3.12259 5.26857L3.27575 4.7252L2.87281 4.38086H3.39911L3.57562 3.93741L3.78261 4.38086H4.23127L3.87874 4.7252L4.01522 5.26857L3.57626 4.96324ZM5.62259 5.26857L6.07626 4.96324L6.51522 5.26857L6.37872 4.7252L6.73128 4.38086H6.28259L6.07562 3.93741L5.89911 4.38086H5.37281L5.77575 4.7252L5.62259 5.26857ZM8.57628 4.96324L8.12259 5.26857L8.27578 4.7252L7.87278 4.38086H8.39909L8.57565 3.93741L8.78259 4.38086H9.23128L8.87872 4.7252L9.01522 5.26857L8.57628 4.96324ZM0.622585 7.66857L1.07626 7.36323L1.51522 7.66857L1.37874 7.12521L1.73127 6.78086H1.28261L1.07562 6.33741L0.899105 6.78086H0.372803L0.775749 7.12521L0.622585 7.66857ZM3.57626 7.36323L3.12259 7.66857L3.27575 7.12521L2.87281 6.78086H3.39911L3.57562 6.33741L3.78261 6.78086H4.23127L3.87874 7.12521L4.01522 7.66857L3.57626 7.36323ZM5.62259 7.66857L6.07626 7.36323L6.51522 7.66857L6.37872 7.12521L6.73128 6.78086H6.28259L6.07562 6.33741L5.89911 6.78086H5.37281L5.77575 7.12521L5.62259 7.66857ZM8.57628 7.36323L8.12259 7.66857L8.27578 7.12521L7.87278 6.78086H8.39909L8.57565 6.33741L8.78259 6.78086H9.23128L8.87872 7.12521L9.01522 7.66857L8.57628 7.36323ZM10.6226 2.86857L11.0763 2.56324L11.5152 2.86857L11.3787 2.3252L11.7313 1.98086H11.2826L11.0757 1.53741L10.8991 1.98086H10.3728L10.7758 2.3252L10.6226 2.86857ZM11.0763 4.96324L10.6226 5.26857L10.7758 4.7252L10.3728 4.38086H10.8991L11.0757 3.93741L11.2826 4.38086H11.7313L11.3787 4.7252L11.5152 5.26857L11.0763 4.96324ZM10.6226 7.66857L11.0763 7.36323L11.5152 7.66857L11.3787 7.12521L11.7313 6.78086H11.2826L11.0757 6.33741L10.8991 6.78086H10.3728L10.7758 7.12521L10.6226 7.66857ZM2.32626 3.76324L1.87259 4.06857L2.02575 3.5252L1.62281 3.18086H2.14911L2.32562 2.73741L2.53261 3.18086H2.98127L2.62874 3.5252L2.76522 4.06857L2.32626 3.76324ZM4.37259 4.06857L4.82626 3.76324L5.26522 4.06857L5.12874 3.5252L5.48127 3.18086H5.03261L4.82562 2.73741L4.64911 3.18086H4.12281L4.52575 3.5252L4.37259 4.06857ZM7.32628 3.76324L6.87259 4.06857L7.02578 3.5252L6.62278 3.18086H7.14909L7.32565 2.73741L7.53259 3.18086H7.98128L7.62872 3.5252L7.76522 4.06857L7.32628 3.76324ZM1.87259 6.46857L2.32626 6.16324L2.76522 6.46857L2.62874 5.9252L2.98127 5.58086H2.53261L2.32562 5.13741L2.14911 5.58086H1.62281L2.02575 5.9252L1.87259 6.46857ZM4.82626 6.16324L4.37259 6.46857L4.52575 5.9252L4.12281 5.58086H4.64911L4.82562 5.13741L5.03261 5.58086H5.48127L5.12874 5.9252L5.26522 6.46857L4.82626 6.16324ZM6.87259 6.46857L7.32628 6.16324L7.76522 6.46857L7.62872 5.9252L7.98128 5.58086H7.53259L7.32565 5.13741L7.14909 5.58086H6.62278L7.02578 5.9252L6.87259 6.46857ZM9.82628 3.76324L9.37259 4.06857L9.52578 3.5252L9.12278 3.18086H9.64909L9.82565 2.73741L10.0326 3.18086H10.4813L10.1287 3.5252L10.2652 4.06857L9.82628 3.76324ZM9.37259 6.46857L9.82628 6.16324L10.2652 6.46857L10.1287 5.9252L10.4813 5.58086H10.0326L9.82565 5.13741L9.64909 5.58086H9.12278L9.52578 5.9252L9.37259 6.46857Z" fill="#F7FCFF"/>
</g>
</svg>
