<svg width="36" height="35" viewBox="0 0 36 35" fill="none" xmlns="http://www.w3.org/2000/svg">
<rect x="1" y="0.5" width="34" height="34" rx="17" fill="#007E1D"/>
<path d="M12.0054 27H7.46436V12.4004H12.0054V27ZM9.71045 10.4473C8.29443 10.4473 7.12256 9.22656 7.12256 7.76172C7.12256 6.3457 8.29443 5.17383 9.71045 5.17383C11.1753 5.17383 12.3472 6.3457 12.3472 7.76172C12.3472 9.22656 11.1753 10.4473 9.71045 10.4473ZM28.9487 27H24.4565V19.9199C24.4565 18.2109 24.4077 16.0625 22.064 16.0625C19.7202 16.0625 19.3784 17.8691 19.3784 19.7734V27H14.8374V12.4004H19.1831V14.4023H19.2319C19.8667 13.2793 21.3315 12.0586 23.5288 12.0586C28.1187 12.0586 28.9976 15.0859 28.9976 18.9922V27H28.9487Z" fill="#FAFAFA"/>
<rect x="1" y="0.5" width="34" height="34" rx="17" stroke="#FAFAFA"/>
</svg>
