<svg width="36" height="35" viewBox="0 0 36 35" fill="none" xmlns="http://www.w3.org/2000/svg">
<rect x="1" y="0.5" width="34" height="34" rx="17" fill="#007E1D"/>
<path d="M19.1909 6.50135C19.9935 6.49827 20.7962 6.50634 21.5986 6.52555L21.812 6.53325C22.0584 6.54205 22.3015 6.55305 22.5952 6.56625C23.7655 6.62125 24.5641 6.80604 25.2648 7.07773C25.9907 7.35712 26.6023 7.73551 27.2139 8.34709C27.773 8.89664 28.2058 9.56139 28.4821 10.2951C28.7538 10.9958 28.9386 11.7955 28.9936 12.9658C29.0068 13.2584 29.0178 13.5026 29.0266 13.749L29.0332 13.9624C29.0527 14.7645 29.0611 15.5668 29.0585 16.3691L29.0596 17.1897V18.6306C29.0623 19.4333 29.0538 20.236 29.0343 21.0385L29.0277 21.2519C29.0189 21.4982 29.0079 21.7413 28.9947 22.035C28.9397 23.2054 28.7527 24.004 28.4821 24.7046C28.2067 25.4391 27.7738 26.1044 27.2139 26.6538C26.6638 27.2129 25.9988 27.6457 25.2648 27.922C24.5641 28.1937 23.7655 28.3785 22.5952 28.4335C22.3015 28.4467 22.0584 28.4577 21.812 28.4665L21.5986 28.4731C20.7962 28.4927 19.9935 28.5011 19.1909 28.4984L18.3703 28.4995H16.9305C16.1278 28.5022 15.3251 28.4938 14.5227 28.4742L14.3093 28.4676C14.0482 28.4581 13.7871 28.4471 13.5262 28.4346C12.3558 28.3796 11.5573 28.1926 10.8555 27.922C10.1215 27.6463 9.45663 27.2135 8.9075 26.6538C8.34768 26.1041 7.9145 25.4389 7.63816 24.7046C7.36648 24.004 7.18169 23.2054 7.12669 22.035C7.11444 21.774 7.10344 21.513 7.09369 21.2519L7.08819 21.0385C7.06791 20.236 7.05875 19.4333 7.06069 18.6306V16.3691C7.05762 15.5668 7.06569 14.7645 7.08489 13.9624L7.09259 13.749C7.10139 13.5026 7.11239 13.2584 7.12559 12.9658C7.18059 11.7944 7.36538 10.9969 7.63706 10.2951C7.91356 9.56103 8.34759 8.89646 8.9086 8.34819C9.45735 7.78804 10.1218 7.35445 10.8555 7.07773C11.5573 6.80604 12.3547 6.62125 13.5262 6.56625L14.3093 6.53325L14.5227 6.52775C15.3248 6.50748 16.1271 6.49832 16.9294 6.50025L19.1909 6.50135ZM18.0601 12.0012C17.3314 11.9909 16.6079 12.1255 15.9317 12.3972C15.2555 12.669 14.64 13.0724 14.1211 13.5841C13.6021 14.0957 13.19 14.7055 12.9087 15.3778C12.6275 16.0501 12.4826 16.7716 12.4826 17.5004C12.4826 18.2292 12.6275 18.9507 12.9087 19.6231C13.19 20.2954 13.6021 20.9051 14.1211 21.4168C14.64 21.9285 15.2555 22.3319 15.9317 22.6036C16.6079 22.8754 17.3314 23.01 18.0601 22.9997C19.5187 22.9997 20.9176 22.4202 21.949 21.3888C22.9804 20.3574 23.5598 18.9585 23.5598 17.4999C23.5598 16.0412 22.9804 14.6423 21.949 13.6109C20.9176 12.5795 19.5187 12.0012 18.0601 12.0012ZM18.0601 14.2011C18.4985 14.193 18.934 14.2724 19.3413 14.4345C19.7487 14.5967 20.1196 14.8383 20.4325 15.1455C20.7453 15.4526 20.9939 15.819 21.1636 16.2232C21.3332 16.6274 21.4207 17.0615 21.4207 17.4999C21.4208 17.9383 21.3335 18.3723 21.164 18.7766C20.9944 19.1809 20.746 19.5474 20.4332 19.8546C20.1205 20.1618 19.7496 20.4036 19.3424 20.5659C18.9351 20.7282 18.4996 20.8077 18.0612 20.7998C17.1861 20.7998 16.3467 20.4521 15.7279 19.8333C15.1091 19.2144 14.7614 18.3751 14.7614 17.4999C14.7614 16.6247 15.1091 15.7854 15.7279 15.1665C16.3467 14.5477 17.1861 14.2 18.0612 14.2L18.0601 14.2011ZM23.8348 10.3512C23.48 10.3654 23.1444 10.5164 22.8983 10.7725C22.6523 11.0286 22.5149 11.3699 22.5149 11.7251C22.5149 12.0802 22.6523 12.4216 22.8983 12.6777C23.1444 12.9338 23.48 13.0847 23.8348 13.0989C24.1995 13.0989 24.5492 12.9541 24.8071 12.6962C25.0649 12.4384 25.2098 12.0886 25.2098 11.724C25.2098 11.3593 25.0649 11.0096 24.8071 10.7517C24.5492 10.4939 24.1995 10.349 23.8348 10.349V10.3512Z" fill="#FAFAFA"/>
<rect x="1" y="0.5" width="34" height="34" rx="17" stroke="#FAFAFA"/>
</svg>
