<svg width="20" height="16" viewBox="0 0 20 16" fill="none" xmlns="http://www.w3.org/2000/svg">
<g clip-path="url(#clip0_1400_4460)">
<mask id="mask0_1400_4460" style="mask-type:luminance" maskUnits="userSpaceOnUse" x="-1" y="0" width="21" height="16">
<path d="M-0.00268555 0H19.9983V16H-0.00268555V0Z" fill="white"/>
</mask>
<g mask="url(#mask0_1400_4460)">
<path fill-rule="evenodd" clip-rule="evenodd" d="M-1.26245 0H21.261V16H-1.26245V0Z" fill="#FF0000"/>
<path fill-rule="evenodd" clip-rule="evenodd" d="M5.57837 8.15938C5.97681 7.64062 6.80591 8.14687 7.48267 7.775C6.67993 7.82188 6.24341 7.3625 5.6106 7.42812C6.26685 6.99687 6.82642 7.56875 7.55884 7.34062C6.58911 7.25312 6.63013 6.7875 5.74536 6.72188C6.53052 6.36563 6.91724 7.09063 7.68774 6.925C6.77954 6.70313 6.66235 6.13437 5.98853 6.0125C6.9729 5.85625 6.90845 6.475 7.87231 6.55C6.8938 6.10313 7.14868 5.7125 6.3313 5.37187C7.24829 5.35 7.18677 6.02813 8.11841 6.20312C7.32153 5.66563 7.41821 5.175 6.76489 4.79063C7.54126 4.80625 7.6145 5.65313 8.40845 5.91563C7.70239 5.31875 7.88696 4.8125 7.27759 4.27812C8.05103 4.47187 7.93677 5.20312 8.74243 5.67188C8.14478 4.96563 8.37329 4.45937 7.85474 3.88125C8.59888 4.13437 8.3147 4.83125 9.0852 5.49375C8.64575 4.71563 8.91821 4.21875 8.48169 3.56562C9.1731 3.94375 8.83911 4.65625 9.47778 5.3625C9.17603 4.56563 9.47778 4.07187 9.17017 3.36562C9.76196 3.83437 9.4104 4.59375 9.88794 5.31875C9.71216 4.31875 10.1165 4.15625 9.99048 3.28125C10.4387 3.86875 9.93774 4.45625 10.2834 5.32188C10.2395 4.3375 10.7317 4.10938 10.6467 3.32188C11.0891 4.02813 10.3977 4.64375 10.6877 5.4C10.761 4.46875 11.3352 4.225 11.344 3.5C11.6956 4.16562 10.9338 4.64688 11.0569 5.53125C11.3059 4.55625 11.9182 4.4375 11.9944 3.78125C12.2024 4.55 11.3674 4.90625 11.4172 5.7625C11.6663 4.89687 12.4309 4.79375 12.5891 4.15625C12.6858 4.96875 11.9329 5.11563 11.719 6.01562C12.1145 5.28125 12.8088 5.22187 13.1194 4.64062C13.0959 5.44688 12.2463 5.55313 11.9856 6.30625C12.4749 5.66563 13.0901 5.775 13.5793 5.20937C13.5266 5.9375 12.6624 5.89688 12.2024 6.65C12.7327 6.12813 13.5325 6.28437 13.9397 5.83437C13.9192 6.47812 12.8586 6.42812 12.3577 7.00625C12.9729 6.64375 13.7581 6.85625 14.2092 6.52187C14.1272 7.08437 13.0081 6.95312 12.4719 7.39687C13.2102 7.17812 13.7815 7.5125 14.3762 7.27187C14.0862 7.81875 13.0696 7.47188 12.5305 7.82812C13.175 7.7125 13.8547 8.12813 14.4377 7.99375C14.2473 8.46875 13.1311 7.9625 12.5334 8.25937C13.2483 8.25312 13.7141 8.74375 14.3792 8.70938C14.0188 9.14063 13.0403 8.55 12.469 8.65C13.1663 8.80625 13.6995 9.41875 14.2268 9.45C13.7903 9.80312 12.9817 8.99688 12.3225 9.09688C13.0022 9.29063 13.5706 10.1125 13.9573 10.1313C13.5383 10.4375 12.7122 9.42812 12.1467 9.46562C12.8352 9.79688 13.1487 10.6375 13.6028 10.7563C13.0432 10.9469 12.4924 9.84375 11.8918 9.80313C12.5891 10.2719 12.6272 10.9906 13.1633 11.3094C12.5979 11.4563 12.1965 10.2094 11.6018 10.1031C12.1731 10.55 12.261 11.5094 12.6389 11.8094C12.0647 11.8406 11.8567 10.5375 11.2678 10.35C11.7717 10.8 11.6516 11.775 12.0442 12.1938C11.4465 12.0594 11.5227 10.925 10.8987 10.5406C11.3469 11.1469 11.1184 12.0063 11.4114 12.4906C10.8284 12.2406 11.0803 11.2219 10.5266 10.6469C10.8284 11.2906 10.5032 12.0406 10.7434 12.6625C10.2102 12.3844 10.5676 11.1813 10.1604 10.7031C10.3479 11.4469 10.0022 12.0625 10.1428 12.7281C9.5979 12.0562 10.2249 11.3781 9.75317 10.6938C9.87622 11.4781 9.3606 12.0281 9.44263 12.6844C9.01196 12.1469 9.677 11.2875 9.34009 10.6094C9.4104 11.3813 8.74536 12.0594 8.79224 12.5469C8.44067 11.9219 9.18188 11.1844 8.98267 10.475C8.94165 11.2125 8.26782 11.6125 8.14185 12.2844C7.91626 11.5437 8.71606 11.0094 8.64575 10.2812C8.41724 10.9719 7.76685 11.25 7.53833 11.9219C7.35083 11.1813 8.30005 10.7906 8.32349 10.0156C8.03052 10.7406 7.25415 10.9031 6.99634 11.4594C6.89966 10.725 7.98657 10.3969 8.02759 9.7C7.67603 10.3687 6.82642 10.3969 6.53345 10.9281C6.4895 10.1969 7.63501 10.1062 7.81372 9.34062C7.46509 9.90937 6.53345 9.8375 6.1438 10.3C6.20532 9.62188 7.44458 9.58125 7.6438 8.96875C7.18091 9.44375 6.32544 9.25 5.84204 9.625C6.11157 8.95625 7.27466 9.09688 7.5354 8.61563C7.02271 8.9 6.11157 8.62188 5.6604 8.90938C6.07056 8.27813 6.9729 8.65625 7.4856 8.22188C6.65356 8.35 6.15259 7.99688 5.57544 8.15938H5.57837Z" fill="#FFFF00"/>
<path fill-rule="evenodd" clip-rule="evenodd" d="M12.9172 8.00314C12.9172 8.82572 12.6109 9.61462 12.0656 10.1963C11.5203 10.7779 10.7807 11.1047 10.0095 11.1047C9.23835 11.1047 8.49876 10.7779 7.95346 10.1963C7.40815 9.61462 7.10181 8.82572 7.10181 8.00314C7.10181 7.18097 7.408 6.39247 7.95303 5.81111C8.49806 5.22974 9.23727 4.90314 10.0081 4.90314C10.7788 4.90314 11.5181 5.22974 12.0631 5.81111C12.6081 6.39247 12.9143 7.18097 12.9143 8.00314H12.9172Z" fill="#FFFF00"/>
<path fill-rule="evenodd" clip-rule="evenodd" d="M12.5422 8.00937C12.5422 8.72463 12.2759 9.41059 11.8017 9.91635C11.3276 10.4221 10.6845 10.7063 10.0139 10.7063C9.34336 10.7063 8.70028 10.4221 8.22612 9.91635C7.75197 9.41059 7.4856 8.72463 7.4856 8.00937C7.4856 7.29412 7.75197 6.60816 8.22612 6.1024C8.70028 5.59663 9.34336 5.3125 10.0139 5.3125C10.6845 5.3125 11.3276 5.59663 11.8017 6.1024C12.2759 6.60816 12.5422 7.29412 12.5422 8.00937Z" fill="#FF0000"/>
<path fill-rule="evenodd" clip-rule="evenodd" d="M12.1907 8.01564C12.1907 8.62978 11.962 9.21877 11.5548 9.65303C11.1477 10.0873 10.5955 10.3313 10.0198 10.3313C9.44402 10.3313 8.89184 10.0873 8.48472 9.65303C8.0776 9.21877 7.84888 8.62978 7.84888 8.01564C7.84888 7.4015 8.0776 6.81251 8.48472 6.37824C8.89184 5.94398 9.44402 5.70001 10.0198 5.70001C10.5955 5.70001 11.1477 5.94398 11.5548 6.37824C11.962 6.81251 12.1907 7.4015 12.1907 8.01564Z" fill="#FFFF00"/>
<path fill-rule="evenodd" clip-rule="evenodd" d="M8.17114 6.50001C8.77173 6.48439 9.5188 6.54376 10.0139 6.96251C10.5429 6.61039 11.1656 6.45338 11.7864 6.51564L12.1086 7.14376C11.6079 7.09503 11.1037 7.18322 10.6438 7.40001C10.9725 7.65861 11.2368 7.99922 11.4135 8.39201C11.5902 8.7848 11.674 9.21781 11.6575 9.65314C11.5784 9.75939 11.4524 9.87501 11.3733 9.98126C11.4905 9.09064 11.051 8.09689 10.4094 7.57501C10.9309 8.37501 11.2385 9.09376 11.1536 10.0875L10.8606 10.2875C10.9954 9.41251 10.802 8.38126 10.1956 7.78751C10.5471 8.33439 10.8928 9.31876 10.676 10.3188C10.5823 10.35 10.4358 10.4344 10.342 10.4625C10.4569 10.0522 10.4881 9.62048 10.4335 9.19628C10.3789 8.77207 10.2399 8.36525 10.0256 8.00314C9.62134 8.62189 9.4895 9.56564 9.71802 10.4406C9.60669 10.4094 9.52173 10.3719 9.40747 10.3438C9.24048 9.40626 9.47192 8.34376 9.87329 7.79064C9.46313 8.04376 9.07935 9.12501 9.18774 10.2281L8.91528 10.0938C8.78345 9.27189 9.13208 8.20001 9.63306 7.58126C9.0647 7.96251 8.60181 8.90314 8.68091 9.91251C8.59302 9.83126 8.51392 9.79064 8.42603 9.70626C8.32642 8.82501 8.80688 7.93751 9.36645 7.40626C8.89478 7.17814 8.48755 7.13439 7.90161 7.14376C7.99243 6.94064 8.07739 6.70314 8.17114 6.49689V6.50001Z" fill="#FF0000"/>
</g>
</g>
<defs>
<clipPath id="clip0_1400_4460">
<rect width="20" height="16" fill="white"/>
</clipPath>
</defs>
</svg>
