<svg width="20" height="20" viewBox="0 0 20 20" fill="none" xmlns="http://www.w3.org/2000/svg">
<path fill-rule="evenodd" clip-rule="evenodd" d="M14.1356 14.9973C12.8151 16.1215 11.1035 16.8 9.23333 16.8C5.05438 16.8 1.66667 13.4123 1.66667 9.23332C1.66667 5.05436 5.05438 1.66665 9.23333 1.66665C13.4123 1.66665 16.8 5.05436 16.8 9.23332C16.8 11.0921 16.1297 12.7944 15.0177 14.1116L18.6497 17.7436L17.7658 18.6275L14.1356 14.9973ZM15.55 9.23332C15.55 12.7219 12.7219 15.55 9.23333 15.55C5.74473 15.55 2.91667 12.7219 2.91667 9.23332C2.91667 5.74472 5.74473 2.91665 9.23333 2.91665C12.7219 2.91665 15.55 5.74472 15.55 9.23332Z" fill="#646464"/>
</svg>
