<svg width="36" height="35" viewBox="0 0 36 35" fill="none" xmlns="http://www.w3.org/2000/svg">
<rect x="1" y="0.5" width="34" height="34" rx="17" fill="#007E1D"/>
<path d="M27.9121 12.5469C27.9121 12.791 27.9121 12.9863 27.9121 13.2305C27.9121 20.0176 22.7852 27.7812 13.3613 27.7812C10.4316 27.7812 7.74609 26.9512 5.5 25.4863C5.89062 25.5352 6.28125 25.584 6.7207 25.584C9.11328 25.584 11.3105 24.7539 13.0684 23.3867C10.8223 23.3379 8.91797 21.873 8.2832 19.8223C8.625 19.8711 8.91797 19.9199 9.25977 19.9199C9.69922 19.9199 10.1875 19.8223 10.5781 19.7246C8.23438 19.2363 6.47656 17.1855 6.47656 14.6953V14.6465C7.16016 15.0371 7.99023 15.2324 8.82031 15.2812C7.4043 14.3535 6.52539 12.791 6.52539 11.0332C6.52539 10.0566 6.76953 9.17773 7.20898 8.44531C9.74805 11.5215 13.5566 13.5723 17.8047 13.8164C17.707 13.4258 17.6582 13.0352 17.6582 12.6445C17.6582 9.8125 19.9531 7.51758 22.7852 7.51758C24.25 7.51758 25.5684 8.10352 26.5449 9.12891C27.668 8.88477 28.791 8.44531 29.7676 7.85938C29.377 9.08008 28.5957 10.0566 27.5215 10.6914C28.5469 10.5938 29.5723 10.3008 30.4512 9.91016C29.7676 10.9355 28.8887 11.8145 27.9121 12.5469Z" fill="#FAFAFA"/>
<rect x="1" y="0.5" width="34" height="34" rx="17" stroke="#FAFAFA"/>
</svg>
