<svg width="36" height="35" viewBox="0 0 36 35" fill="none" xmlns="http://www.w3.org/2000/svg">
<rect x="1" y="0.5" width="34" height="34" rx="17" fill="#007E1D"/>
<path d="M15.5 21.1429L21.9875 17.5L15.5 13.8571V21.1429ZM29.95 11.635C30.1125 12.2057 30.225 12.9707 30.3 13.9421C30.3875 14.9136 30.425 15.7514 30.425 16.48L30.5 17.5C30.5 20.1593 30.3 22.1143 29.95 23.365C29.6375 24.4579 28.9125 25.1621 27.7875 25.4657C27.2 25.6236 26.125 25.7329 24.475 25.8057C22.85 25.8907 21.3625 25.9271 19.9875 25.9271L18 26C12.7625 26 9.5 25.8057 8.2125 25.4657C7.0875 25.1621 6.3625 24.4579 6.05 23.365C5.8875 22.7943 5.775 22.0293 5.7 21.0579C5.6125 20.0864 5.575 19.2486 5.575 18.52L5.5 17.5C5.5 14.8407 5.7 12.8857 6.05 11.635C6.3625 10.5421 7.0875 9.83786 8.2125 9.53429C8.8 9.37643 9.875 9.26714 11.525 9.19429C13.15 9.10929 14.6375 9.07286 16.0125 9.07286L18 9C23.2375 9 26.5 9.19429 27.7875 9.53429C28.9125 9.83786 29.6375 10.5421 29.95 11.635Z" fill="#FAFAFA"/>
<rect x="1" y="0.5" width="34" height="34" rx="17" stroke="#FAFAFA"/>
</svg>
